{"title":"Survivor 2014 BRRip x264 AC3-MiLLENiUM","uid":10541966,"size":1590698305,"categoryP":"video","categoryS":"movies","magnet":"?xt=urn:btih:d840e5bfca8cff9f127545496d24fd63cdce929b&amp;dn=Survivor+2014+BRRip+x264+AC3-MiLLENiUM&amp;tr=udp%3A%2F%2Ftracker.openbittorrent.com%3A80&amp;tr=udp%3A%2F%2Fopen.demonii.com%3A1337&amp;tr=udp%3A%2F%2Ftracker.coppersurfer.tk%3A6969&amp;tr=udp%3A%2F%2Fexodus.desync.com%3A6969","seeders":22,"leechers":9,"uploader":"xxxlavalxxx","files":-1,"time":1405238525,"description":"[IMG]http://i.imgur.com/bYAr348.jpg[/IMG]\n\n &lt;a href=&quot;\nhttp://www.imdb.com/title/tt3297792/&quot; rel=&quot;nofollow&quot; target=&quot;_NEW&quot;&gt;\nhttp://www.imdb.com/title/tt3297792/&lt;/a&gt;\n\n\nDuring their search for a habitable planet the last living humans crash-land on a barren world, inhabited by bloodthirsty aliens and mysterious post-apocalyptic warriors.\n\nDirector: John Lyde\nWriter: John Lyde\nStars: Danielle Chuchran, Kevin Sorbo, Paul D. Hunt\nGenres: Action | Fantasy | Sci-Fi\nCountry: USA\nLanguage: English\n\n\nSurvivor 2014 BRRip x264 AC3-MiLLENiUM                  \n\nGeneral\n\nSource...............: 720p.BluRay-FRACTAL [THANKS]\nIMDb Information.... : http://www.imdb.com/title/tt3297792/\nSample Included......: yes\n\nGeneral\nComplete name                            : Survivor 2014 BRRip x264 AC3-MiLLENiUM.mkv\nFormat                                   : Matroska\nFormat version                           : Version 2\nFile size                                : 1.46 GiB\nDuration                                 : 1h 33mn\nOverall bit rate mode                    : Variable\nOverall bit rate                         : 2 241 Kbps\nEncoded date                             : UTC 2014-07-13 02:02:33\nWriting application                      : mkvmerge v7.0.0 ('Where We Going') 32bit built on Jun  9 2014 15:08:34\nWriting library                          : libebml v1.3.0 + libmatroska v1.4.1\n\nVideo\nID                                       : 1\nFormat                                   : AVC\nFormat/Info                              : Advanced Video Codec\nFormat profile                           : &lt;a class=&quot;__cf_email__&quot; href=&quot;/cdn-cgi/l/email-protection&quot; data-cfemail=&quot;5b13323c331b176f756a&quot;&gt;[email&amp;#160;protected]&lt;/a&gt;&lt;script cf-hash='f9e31' type=&quot;text/javascript&quot;&gt;\n/* &lt;![CDATA[ */!function(){try{var t=&quot;currentScript&quot;in document?document.currentScript:function(){for(var t=document.getElementsByTagName(&quot;script&quot;),e=t.length;e--;)if(t[e].getAttribute(&quot;cf-hash&quot;))return t[e]}();if(t&amp;&amp;t.previousSibling){var e,r,n,i,c=t.previousSibling,a=c.getAttribute(&quot;data-cfemail&quot;);if(a){for(e=&quot;&quot;,r=parseInt(a.substr(0,2),16),n=2;a.length-n;n+=2)i=parseInt(a.substr(n,2),16)^r,e+=String.fromCharCode(i);e=document.createTextNode(e),c.parentNode.replaceChild(e,c)}}}catch(u){}}();/* ]]&gt; */&lt;/script&gt;\nFormat settings, CABAC                   : Yes\nFormat settings, ReFrames                : 3 frames\nCodec ID                                 : V_MPEG4/ISO/AVC\nDuration                                 : 1h 33mn\nBit rate mode                            : Variable\nBit rate                                 : 1 749 Kbps\nMaximum bit rate                         : 40.0 Mbps\nWidth                                    : 720 pixels\nHeight                                   : 400 pixels\nDisplay aspect ratio                     : 16:9\nFrame rate mode                          : Constant\nFrame rate                               : 23.976 fps\nColor space                              : YUV\nChroma subsampling                       : 4:2:0\nBit depth                                : 8 bits\nScan type                                : Progressive\nBits/(Pixel*Frame)                       : 0.253\nStream size                              : 1.14 GiB (78%)\nWriting library                          : x264 core 142 r2431 ac76440\n\nAudio\nID                                       : 2\nFormat                                   : AC-3\nFormat/Info                              : Audio Coding 3\nMode extension                           : CM (complete main)\nFormat settings, Endianness              : Big\nCodec ID                                 : A_AC3\nDuration                                 : 1h 33mn\nBit rate mode                            : Constant\nBit rate                                 : 448 Kbps\nChannel(s)                               : 6 channels\nChannel positions                        : Front: L C R, Side: L R, LFE\nSampling rate                            : 48.0 KHz\nBit depth                                : 16 bits\nCompression mode                         : Lossy\nStream size                              : 298 MiB (20%)\nLanguage                                 : English\nDefault                                  : Yes\nForced                                   : No\n\n\nscreens\n &lt;a href=&quot;\nhttp://i.imgur.com/zFTXyve.jpg&quot; rel=&quot;nofollow&quot; target=&quot;_NEW&quot;&gt;\nhttp://i.imgur.com/zFTXyve.jpg&lt;/a&gt; &lt;a href=&quot;\nhttp://i.imgur.com/TfVwjKo.jpg&quot; rel=&quot;nofollow&quot; target=&quot;_NEW&quot;&gt;\nhttp://i.imgur.com/TfVwjKo.jpg&lt;/a&gt; &lt;a href=&quot;\nhttp://i.imgur.com/liQWDYS.jpg&quot; rel=&quot;nofollow&quot; target=&quot;_NEW&quot;&gt;\nhttp://i.imgur.com/liQWDYS.jpg&lt;/a&gt; &lt;a href=&quot;\nhttp://i.imgur.com/nwD79vM.jpg&quot; rel=&quot;nofollow&quot; target=&quot;_NEW&quot;&gt;\nhttp://i.imgur.com/nwD79vM.jpg&lt;/a&gt; &lt;a href=&quot;\nhttp://i.imgur.com/duzYVGy.jpg&quot; rel=&quot;nofollow&quot; target=&quot;_NEW&quot;&gt;\nhttp://i.imgur.com/duzYVGy.jpg&lt;/a&gt;","torrent":{"xt":"urn:btih:d840e5bfca8cff9f127545496d24fd63cdce929b","amp;dn":"Survivor+2014+BRRip+x264+AC3-MiLLENiUM","amp;tr":["udp%3A%2F%2Ftracker.openbittorrent.com%3A80","udp%3A%2F%2Fopen.demonii.com%3A1337","udp%3A%2F%2Ftracker.coppersurfer.tk%3A6969","udp%3A%2F%2Fexodus.desync.com%3A6969"],"infoHash":"d840e5bfca8cff9f127545496d24fd63cdce929b","infoHashBuffer":{"type":"Buffer","data":[216,64,229,191,202,140,255,159,18,117,69,73,109,36,253,99,205,206,146,155]},"announce":[],"urlList":[]}}